Jump_normalized_Motion_pl02
version=1
nRows=14
nColumns=43
inDegrees=yes
endheader
time		pelvis_tilt		pelvis_list		pelvis_rotation		pelvis_tx		pelvis_ty		pelvis_tz		hip_flexion_r		hip_adduction_r		hip_rotation_r		knee_angle_r		ankle_angle_r		subtalar_angle_r		mtp_angle_r		hip_flexion_l		hip_adduction_l		hip_rotation_l		knee_angle_l		ankle_angle_l		subtalar_angle_l		mtp_angle_l		lumbar_extension		lumbar_bending		lumbar_rotation		neck_flexion		neck_lateral_bending		neck_rotation		arm_flex_r		arm_add_r		arm_rot_r		elbow_flex_r		pro_sup_r		wrist_flex_r		wrist_dev_r		hand_finger_flex_r		arm_flex_l		arm_add_l		arm_rot_l		elbow_flex_l		pro_sup_l		wrist_flex_l		wrist_dev_l		hand_finger_flex_l		
0.086667		1.890964		-13.190133		88.101535		0.073785		1.794786		1.804294		77.702655		-3.420075		2.843935		-142.639559		24.242377		2.681655		16.215978		75.849923		-9.064213		14.529401		-142.775451		22.007672		20.695819		27.385776		-47.924542		1.188324		3.971675		36.819727		1.799008		-2.077010		61.149509		-28.365039		-0.143473		93.610193		116.242448		12.546069		-5.632301		-27.890019		72.730305		-22.341346		15.287593		65.791877		120.994514		-14.117860		-3.911797		7.558477		
0.089217		1.868657		-13.500821		88.010398		0.073584		1.795750		1.801568		77.558393		-3.363627		2.879892		-142.405616		24.245262		2.638302		16.195121		75.695022		-9.097532		14.368512		-142.563444		21.880134		20.626319		27.466435		-47.539701		1.189151		4.010286		36.822549		1.861279		-2.039369		62.315537		-28.236136		0.200506		93.711200		116.381304		12.698567		-5.471180		-27.846609		73.394873		-22.217415		15.468749		65.866952		120.980886		-14.189944		-3.780427		7.577075		
0.091768		1.834455		-13.799380		87.920206		0.073362		1.796676		1.798851		77.400918		-3.309567		2.924934		-142.175168		24.278564		2.598376		16.178852		75.536995		-9.127204		14.210891		-142.362390		21.711869		20.581829		27.543090		-47.164164		1.196791		4.051371		36.799567		1.936695		-2.009681		63.517815		-28.117867		0.579424		93.798824		116.543356		12.913205		-5.313205		-27.772824		74.075301		-22.110139		15.656586		65.916270		121.007146		-14.237614		-3.632911		7.608546		
0.094318		1.808614		-14.004028		87.792098		0.073141		1.797866		1.795998		77.094590		-3.220021		2.992239		-141.913508		24.317434		2.554609		16.140603		75.258780		-9.199911		14.014532		-142.124337		21.457387		20.483277		27.728943		-46.885359		1.190471		4.050570		36.628985		1.903640		-1.882207		64.774775		-27.917419		1.006745		93.842041		116.839496		13.268885		-5.005144		-27.663623		74.708624		-22.155483		15.940821		66.104092		121.047645		-14.399410		-3.377865		7.676144		
0.096869		1.796058		-14.290567		87.713356		0.072928		1.798947		1.793131		76.876924		-3.164591		3.018966		-141.651145		24.344161		2.532451		16.116716		75.076356		-9.228712		13.878432		-141.890640		21.292088		20.462667		27.846599		-46.523369		1.201985		4.075697		36.630978		1.979539		-1.834586		65.900696		-27.667871		1.263490		93.897194		117.014904		13.464837		-4.866347		-27.600824		75.345192		-22.016628		16.067614		66.170873		121.067755		-14.493261		-3.219629		7.714290		
0.099419		1.793035		-14.527765		87.607826		0.072801		1.800074		1.790238		76.591119		-3.045916		3.044046		-141.383711		24.389359		2.488764		16.086908		74.862358		-9.302894		13.757905		-141.665407		21.035592		20.486121		28.003489		-46.201110		1.208999		4.104051		36.486262		2.020289		-1.758968		67.102311		-27.474118		1.669409		93.910976		117.257575		13.766995		-4.702834		-27.494960		75.993096		-21.973415		16.259201		66.257562		121.132967		-14.595071		-3.053342		7.761672		
0.101970		1.823683		-14.743166		87.497945		0.072686		1.801327		1.787249		76.257258		-2.914238		3.039211		-141.089609		24.428360		2.433061		16.047048		74.606822		-9.396333		13.676184		-141.417073		20.770773		20.529862		28.216986		-45.904328		1.238146		4.150369		36.362148		2.053760		-1.654250		68.311382		-27.222081		2.069775		93.882875		117.533043		14.073598		-4.528555		-27.397985		76.611144		-21.945030		16.435906		66.359919		121.193935		-14.748445		-2.878634		7.798000		
0.104520		1.851832		-15.040562		87.424040		0.072518		1.802457		1.784199		76.016287		-2.842539		3.025848		-140.797388		24.449523		2.395964		16.025442		74.422985		-9.439962		13.615473		-141.161912		20.593396		20.578657		28.328283		-45.511319		1.274079		4.227178		36.365274		2.151445		-1.623325		69.389392		-26.957459		2.323702		93.864919		117.681268		14.216915		-4.444558		-27.353181		77.206245		-21.768529		16.521166		66.386158		121.226229		-14.825135		-2.781895		7.800593		
0.107071		2.023112		-15.114230		87.320547		0.072451		1.804055		1.780983		75.452614		-2.618532		2.861405		-140.443614		24.488703		2.271228		15.951153		74.022220		-9.631767		13.683602		-140.913850		20.241600		20.687812		28.782656		-45.379912		1.438558		4.346962		36.217158		2.023650		-1.389740		70.703284		-26.591267		2.815961		93.756228		118.062692		14.536040		-4.194006		-27.329790		77.772583		-21.872332		16.724580		66.550597		121.287276		-15.159677		-2.555398		7.741779		
0.109621		2.075689		-15.404963		87.272789		0.072317		1.805224		1.777820		75.156167		-2.522549		2.818365		-140.127876		24.525818		2.211308		15.927002		73.853081		-9.673237		13.655466		-140.647689		20.034224		20.754034		28.934190		-44.987346		1.493304		4.421205		36.163742		2.147976		-1.376014		71.766652		-26.444805		3.175620		93.733712		118.210223		14.687780		-4.126803		-27.306909		78.349255		-21.711177		16.819539		66.608983		121.313301		-15.236965		-2.481728		7.718245		
0.112172		2.184032		-15.586196		87.185763		0.072199		1.806480		1.774530		74.725819		-2.349515		2.741154		-139.805736		24.594864		2.128196		15.900509		73.586059		-9.799563		13.681538		-140.408697		19.636213		20.835645		29.149617		-44.698874		1.608853		4.564450		35.908068		2.087559		-1.310054		72.937279		-26.397594		3.760539		93.713925		118.391865		14.864888		-3.982098		-27.316130		78.910556		-21.681773		17.008841		66.683176		121.397195		-15.341500		-2.393601		7.634767		
0.114722		2.243368		-15.862980		87.136144		0.072007		1.807642		1.771265		74.407477		-2.263899		2.695449		-139.486366		24.631026		2.087320		15.888228		73.401942		-9.847228		13.653788		-140.145759		19.411651		20.891675		29.257177		-44.314139		1.687302		4.673430		35.904013		2.156872		-1.301769		73.959523		-26.226278		4.085652		93.668591		118.489521		14.925958		-3.884494		-27.330227		79.460792		-21.481547		17.070486		66.708173		121.437222		-15.403171		-2.333057		7.570730		
0.117273		2.425568		-15.904096		87.062352		0.071863		1.809222		1.767709		73.761696		-2.071019		2.554962		-139.120997		24.702003		2.009623		15.863702		72.984653		-10.021064		13.749952		-139.878845		18.906940		20.984397		29.570187		-44.193461		1.892170		4.880765		35.654050		1.921546		-1.175996		75.158419		-26.198229		4.764993		93.669008		118.665938		14.997235		-3.579611		-27.423492		79.950433		-21.486596		17.231580		66.844980		121.573167		-15.578516		-2.210478		7.379627		
0.119823		2.484544		-16.152507		87.022243		0.071631		1.810379		1.764328		73.422114		-1.996856		2.510739		-138.803597		24.731871		1.971370		15.854240		72.780417		-10.055913		13.722724		-139.623624		18.651394		21.058244		29.699104		-43.834647		1.983511		4.982724		35.658214		1.998423		-1.178722		76.140006		-26.038745		5.101786		93.641056		118.738190		15.026383		-3.446642		-27.454269		80.463282		-21.269232		17.259297		66.865066		121.619336		-15.625023		-2.144031		7.298852		
